<?xml version="1.0" encoding="UTF-8"?>
<svg version="1.1" xmlns="http://www.w3.org/2000/svg" width="512" height="512">
<path d="M0 0 C58.08 0 116.16 0 176 0 C176 5.28 176 10.56 176 16 C170.72 16 165.44 16 160 16 C160 21.28 160 26.56 160 32 C154.72 32 149.44 32 144 32 C144 116.48 144 200.96 144 288 C149.28 288 154.56 288 160 288 C160 293.28 160 298.56 160 304 C154.72 304 149.44 304 144 304 C144 309.28 144 314.56 144 320 C112.32 320 80.64 320 48 320 C48 314.72 48 309.44 48 304 C32.16 304 16.32 304 0 304 C0 298.72 0 293.44 0 288 C-5.28 288 -10.56 288 -16 288 C-16 282.72 -16 277.44 -16 272 C-21.28 272 -26.56 272 -32 272 C-32 261.44 -32 250.88 -32 240 C-37.28 240 -42.56 240 -48 240 C-48 203.04 -48 166.08 -48 128 C-42.72 128 -37.44 128 -32 128 C-32 117.44 -32 106.88 -32 96 C-26.72 96 -21.44 96 -16 96 C-16 90.72 -16 85.44 -16 80 C-10.72 80 -5.44 80 0 80 C0 74.72 0 69.44 0 64 C5.28 64 10.56 64 16 64 C16 58.72 16 53.44 16 48 C26.56 48 37.12 48 48 48 C48 42.72 48 37.44 48 32 C26.88 32 5.76 32 -16 32 C-16 26.72 -16 21.44 -16 16 C-10.72 16 -5.44 16 0 16 C0 10.72 0 5.44 0 0 Z M96 32 C96 100.64 96 169.28 96 240 C90.72 240 85.44 240 80 240 C80 245.28 80 250.56 80 256 C74.72 256 69.44 256 64 256 C64 187.36 64 118.72 64 48 C58.72 48 53.44 48 48 48 C48 53.28 48 58.56 48 64 C42.72 64 37.44 64 32 64 C32 74.56 32 85.12 32 96 C26.72 96 21.44 96 16 96 C16 101.28 16 106.56 16 112 C10.72 112 5.44 112 0 112 C0 154.24 0 196.48 0 240 C5.28 240 10.56 240 16 240 C16 245.28 16 250.56 16 256 C21.28 256 26.56 256 32 256 C32 261.28 32 266.56 32 272 C37.28 272 42.56 272 48 272 C48 277.28 48 282.56 48 288 C74.4 288 100.8 288 128 288 C128 203.52 128 119.04 128 32 C117.44 32 106.88 32 96 32 Z " fill="#9C4039" transform="translate(304,112)"/>
<path d="M0 0 C10.56 0 21.12 0 32 0 C32 5.28 32 10.56 32 16 C47.84 16 63.68 16 80 16 C80 21.28 80 26.56 80 32 C74.72 32 69.44 32 64 32 C64 37.28 64 42.56 64 48 C48.16 48 32.32 48 16 48 C16 127.2 16 206.4 16 288 C26.56 288 37.12 288 48 288 C48 282.72 48 277.44 48 272 C58.56 272 69.12 272 80 272 C80 277.28 80 282.56 80 288 C74.72 288 69.44 288 64 288 C64 293.28 64 298.56 64 304 C53.44 304 42.88 304 32 304 C32 309.28 32 314.56 32 320 C5.6 320 -20.8 320 -48 320 C-48 314.72 -48 309.44 -48 304 C-63.84 304 -79.68 304 -96 304 C-96 298.72 -96 293.44 -96 288 C-101.28 288 -106.56 288 -112 288 C-112 277.44 -112 266.88 -112 256 C-117.28 256 -122.56 256 -128 256 C-128 245.44 -128 234.88 -128 224 C-133.28 224 -138.56 224 -144 224 C-144 187.04 -144 150.08 -144 112 C-138.72 112 -133.44 112 -128 112 C-128 101.44 -128 90.88 -128 80 C-122.72 80 -117.44 80 -112 80 C-112 69.44 -112 58.88 -112 48 C-106.72 48 -101.44 48 -96 48 C-96 42.72 -96 37.44 -96 32 C-90.72 32 -85.44 32 -80 32 C-80 26.72 -80 21.44 -80 16 C-69.44 16 -58.88 16 -48 16 C-48 21.28 -48 26.56 -48 32 C-53.28 32 -58.56 32 -64 32 C-64 37.28 -64 42.56 -64 48 C-69.28 48 -74.56 48 -80 48 C-80 58.56 -80 69.12 -80 80 C-85.28 80 -90.56 80 -96 80 C-96 127.52 -96 175.04 -96 224 C-90.72 224 -85.44 224 -80 224 C-80 229.28 -80 234.56 -80 240 C-74.72 240 -69.44 240 -64 240 C-64 250.56 -64 261.12 -64 272 C-58.72 272 -53.44 272 -48 272 C-48 277.28 -48 282.56 -48 288 C-32.16 288 -16.32 288 0 288 C0 203.52 0 119.04 0 32 C-5.28 32 -10.56 32 -16 32 C-16 26.72 -16 21.44 -16 16 C-10.72 16 -5.44 16 0 16 C0 10.72 0 5.44 0 0 Z " fill="#9C4039" transform="translate(160,112)"/>
<path d="M0 0 C5.28 0 10.56 0 16 0 C16 26.4 16 52.8 16 80 C10.72 80 5.44 80 0 80 C0 85.28 0 90.56 0 96 C-5.28 96 -10.56 96 -16 96 C-16 69.6 -16 43.2 -16 16 C-10.72 16 -5.44 16 0 16 C0 10.72 0 5.44 0 0 Z " fill="#9C4039" transform="translate(112,160)"/>
<path d="M0 0 C5.28 0 10.56 0 16 0 C16 5.28 16 10.56 16 16 C10.72 16 5.44 16 0 16 C0 10.72 0 5.44 0 0 Z " fill="#9C4039" transform="translate(464,384)"/>
<path d="M0 0 C5.28 0 10.56 0 16 0 C16 5.28 16 10.56 16 16 C10.72 16 5.44 16 0 16 C0 10.72 0 5.44 0 0 Z " fill="#9C4039" transform="translate(480,368)"/>
<path d="M0 0 C5.28 0 10.56 0 16 0 C16 5.28 16 10.56 16 16 C10.72 16 5.44 16 0 16 C0 10.72 0 5.44 0 0 Z " fill="#9C4039" transform="translate(352,368)"/>
<path d="M0 0 C5.28 0 10.56 0 16 0 C16 5.28 16 10.56 16 16 C10.72 16 5.44 16 0 16 C0 10.72 0 5.44 0 0 Z " fill="#9C4039" transform="translate(240,368)"/>
<path d="M0 0 C5.28 0 10.56 0 16 0 C16 5.28 16 10.56 16 16 C10.72 16 5.44 16 0 16 C0 10.72 0 5.44 0 0 Z " fill="#9C4039" transform="translate(80,256)"/>
<path d="M0 0 C5.28 0 10.56 0 16 0 C16 5.28 16 10.56 16 16 C10.72 16 5.44 16 0 16 C0 10.72 0 5.44 0 0 Z " fill="#9C4039" transform="translate(272,144)"/>
<path d="M0 0 C5.28 0 10.56 0 16 0 C16 5.28 16 10.56 16 16 C10.72 16 5.44 16 0 16 C0 10.72 0 5.44 0 0 Z " fill="#9C4039" transform="translate(128,144)"/>
<path d="M0 0 C5.28 0 10.56 0 16 0 C16 5.28 16 10.56 16 16 C10.72 16 5.44 16 0 16 C0 10.72 0 5.44 0 0 Z " fill="#9C4039" transform="translate(112,112)"/>
<path d="M0 0 C5.28 0 10.56 0 16 0 C16 5.28 16 10.56 16 16 C10.72 16 5.44 16 0 16 C0 10.72 0 5.44 0 0 Z " fill="#9C4039" transform="translate(480,96)"/>
</svg>
